<mxfile host="Electron" modified="2024-01-07T13:46:32.410Z" agent="Mozilla/5.0 (X11; Linux x86_64) AppleWebKit/537.36 (KHTML, like Gecko) draw.io/22.1.2 Chrome/114.0.5735.289 Electron/25.9.4 Safari/537.36" etag="l6GGm7_yWfQpWai4uoSk" version="22.1.2" type="device" pages="9">
  <diagram name="Page-1" id="6Z-GcYPt7LLyBaW2C43p">
    <mxGraphModel dx="1295" dy="626" grid="0" gridSize="10" guides="1" tooltips="1" connect="1" arrows="1" fold="1" page="1" pageScale="1" pageWidth="850" pageHeight="1100" math="0" shadow="0">
      <root>
        <mxCell id="0" />
        <mxCell id="1" parent="0" />
        <mxCell id="B5WoSIhmeLmSDl7M5GT8-1" value="Python&amp;nbsp;&lt;br&gt;Ruby&amp;nbsp;&lt;br&gt;C&lt;br&gt;R" style="rounded=0;whiteSpace=wrap;html=1;" vertex="1" parent="1">
          <mxGeometry x="81" y="20" width="250" height="168" as="geometry" />
        </mxCell>
        <mxCell id="B5WoSIhmeLmSDl7M5GT8-2" value="C,py" style="ellipse;whiteSpace=wrap;html=1;aspect=fixed;" vertex="1" parent="1">
          <mxGeometry x="336" y="236" width="128" height="128" as="geometry" />
        </mxCell>
        <mxCell id="B5WoSIhmeLmSDl7M5GT8-3" value="HW" style="ellipse;whiteSpace=wrap;html=1;" vertex="1" parent="1">
          <mxGeometry x="131" y="468" width="120" height="80" as="geometry" />
        </mxCell>
        <mxCell id="B5WoSIhmeLmSDl7M5GT8-6" style="edgeStyle=orthogonalEdgeStyle;rounded=0;orthogonalLoop=1;jettySize=auto;html=1;" edge="1" parent="1" source="B5WoSIhmeLmSDl7M5GT8-4" target="B5WoSIhmeLmSDl7M5GT8-3">
          <mxGeometry relative="1" as="geometry" />
        </mxCell>
        <mxCell id="B5WoSIhmeLmSDl7M5GT8-7" style="edgeStyle=orthogonalEdgeStyle;rounded=0;orthogonalLoop=1;jettySize=auto;html=1;exitX=0.5;exitY=0;exitDx=0;exitDy=0;" edge="1" parent="1" source="B5WoSIhmeLmSDl7M5GT8-4" target="B5WoSIhmeLmSDl7M5GT8-5">
          <mxGeometry relative="1" as="geometry" />
        </mxCell>
        <mxCell id="B5WoSIhmeLmSDl7M5GT8-4" value="C" style="ellipse;whiteSpace=wrap;html=1;" vertex="1" parent="1">
          <mxGeometry x="124" y="367" width="120" height="80" as="geometry" />
        </mxCell>
        <mxCell id="B5WoSIhmeLmSDl7M5GT8-5" value="Python" style="ellipse;whiteSpace=wrap;html=1;" vertex="1" parent="1">
          <mxGeometry x="131" y="260" width="120" height="80" as="geometry" />
        </mxCell>
      </root>
    </mxGraphModel>
  </diagram>
  <diagram id="WZqPv_3Pfldfpp96PW0e" name="Page-2">
    <mxGraphModel dx="1295" dy="626" grid="0" gridSize="10" guides="1" tooltips="1" connect="1" arrows="1" fold="1" page="1" pageScale="1" pageWidth="850" pageHeight="1100" math="0" shadow="0">
      <root>
        <mxCell id="0" />
        <mxCell id="1" parent="0" />
        <mxCell id="Jhp757gas46POUQu3iwY-1" style="edgeStyle=orthogonalEdgeStyle;rounded=0;orthogonalLoop=1;jettySize=auto;html=1;exitX=0.5;exitY=0;exitDx=0;exitDy=0;entryX=0;entryY=0.5;entryDx=0;entryDy=0;" edge="1" parent="1" source="KAPFGm6RWei3xVeB8jRj-1" target="KAPFGm6RWei3xVeB8jRj-8">
          <mxGeometry relative="1" as="geometry" />
        </mxCell>
        <mxCell id="KAPFGm6RWei3xVeB8jRj-1" value="RaspberryPi" style="ellipse;whiteSpace=wrap;html=1;" vertex="1" parent="1">
          <mxGeometry x="205" y="243" width="120" height="65" as="geometry" />
        </mxCell>
        <mxCell id="KAPFGm6RWei3xVeB8jRj-2" value="Camera&lt;br&gt;QR" style="ellipse;whiteSpace=wrap;html=1;aspect=fixed;" vertex="1" parent="1">
          <mxGeometry x="354" y="225" width="81" height="81" as="geometry" />
        </mxCell>
        <mxCell id="KAPFGm6RWei3xVeB8jRj-3" value="WEb UI" style="ellipse;whiteSpace=wrap;html=1;aspect=fixed;" vertex="1" parent="1">
          <mxGeometry x="456" y="225" width="80" height="80" as="geometry" />
        </mxCell>
        <mxCell id="KAPFGm6RWei3xVeB8jRj-5" style="edgeStyle=orthogonalEdgeStyle;rounded=0;orthogonalLoop=1;jettySize=auto;html=1;exitX=0.5;exitY=0;exitDx=0;exitDy=0;entryX=0;entryY=1;entryDx=0;entryDy=0;" edge="1" parent="1" source="KAPFGm6RWei3xVeB8jRj-4" target="KAPFGm6RWei3xVeB8jRj-2">
          <mxGeometry relative="1" as="geometry" />
        </mxCell>
        <mxCell id="KAPFGm6RWei3xVeB8jRj-4" value="Opencv" style="ellipse;whiteSpace=wrap;html=1;aspect=fixed;" vertex="1" parent="1">
          <mxGeometry x="325" y="364" width="80" height="80" as="geometry" />
        </mxCell>
        <mxCell id="KAPFGm6RWei3xVeB8jRj-7" style="edgeStyle=orthogonalEdgeStyle;rounded=0;orthogonalLoop=1;jettySize=auto;html=1;exitX=0;exitY=0.5;exitDx=0;exitDy=0;" edge="1" parent="1" source="KAPFGm6RWei3xVeB8jRj-6" target="KAPFGm6RWei3xVeB8jRj-4">
          <mxGeometry relative="1" as="geometry" />
        </mxCell>
        <mxCell id="KAPFGm6RWei3xVeB8jRj-6" value="Python" style="ellipse;whiteSpace=wrap;html=1;aspect=fixed;" vertex="1" parent="1">
          <mxGeometry x="435" y="363" width="81" height="81" as="geometry" />
        </mxCell>
        <mxCell id="KAPFGm6RWei3xVeB8jRj-9" style="edgeStyle=orthogonalEdgeStyle;rounded=0;orthogonalLoop=1;jettySize=auto;html=1;exitX=0;exitY=1;exitDx=0;exitDy=0;" edge="1" parent="1" source="KAPFGm6RWei3xVeB8jRj-8" target="KAPFGm6RWei3xVeB8jRj-2">
          <mxGeometry relative="1" as="geometry" />
        </mxCell>
        <mxCell id="KAPFGm6RWei3xVeB8jRj-10" style="edgeStyle=orthogonalEdgeStyle;rounded=0;orthogonalLoop=1;jettySize=auto;html=1;exitX=1;exitY=0.5;exitDx=0;exitDy=0;" edge="1" parent="1" source="KAPFGm6RWei3xVeB8jRj-8" target="KAPFGm6RWei3xVeB8jRj-3">
          <mxGeometry relative="1" as="geometry" />
        </mxCell>
        <mxCell id="KAPFGm6RWei3xVeB8jRj-12" style="edgeStyle=orthogonalEdgeStyle;rounded=0;orthogonalLoop=1;jettySize=auto;html=1;exitX=1;exitY=0;exitDx=0;exitDy=0;entryX=0.5;entryY=0;entryDx=0;entryDy=0;" edge="1" parent="1" source="KAPFGm6RWei3xVeB8jRj-8" target="KAPFGm6RWei3xVeB8jRj-11">
          <mxGeometry relative="1" as="geometry" />
        </mxCell>
        <mxCell id="KAPFGm6RWei3xVeB8jRj-8" value="Project" style="ellipse;whiteSpace=wrap;html=1;aspect=fixed;" vertex="1" parent="1">
          <mxGeometry x="383" y="103" width="80" height="80" as="geometry" />
        </mxCell>
        <mxCell id="KAPFGm6RWei3xVeB8jRj-11" value="SQLite" style="ellipse;whiteSpace=wrap;html=1;aspect=fixed;" vertex="1" parent="1">
          <mxGeometry x="567" y="232" width="80" height="80" as="geometry" />
        </mxCell>
      </root>
    </mxGraphModel>
  </diagram>
  <diagram id="8hRV6ubn55r9HBi6_uI9" name="Page-3">
    <mxGraphModel dx="1295" dy="626" grid="0" gridSize="10" guides="1" tooltips="1" connect="1" arrows="1" fold="1" page="1" pageScale="1" pageWidth="850" pageHeight="1100" math="0" shadow="0">
      <root>
        <mxCell id="0" />
        <mxCell id="1" parent="0" />
        <mxCell id="9iKpFj8WR964mqMkV7nl-7" style="edgeStyle=orthogonalEdgeStyle;rounded=0;orthogonalLoop=1;jettySize=auto;html=1;exitX=1;exitY=0.5;exitDx=0;exitDy=0;entryX=0;entryY=0.5;entryDx=0;entryDy=0;" edge="1" parent="1" source="9iKpFj8WR964mqMkV7nl-1" target="9iKpFj8WR964mqMkV7nl-6">
          <mxGeometry relative="1" as="geometry" />
        </mxCell>
        <mxCell id="9iKpFj8WR964mqMkV7nl-1" value="Python Module&lt;br&gt;SQLite" style="ellipse;whiteSpace=wrap;html=1;aspect=fixed;" vertex="1" parent="1">
          <mxGeometry x="321" y="434" width="80" height="80" as="geometry" />
        </mxCell>
        <mxCell id="9iKpFj8WR964mqMkV7nl-4" style="edgeStyle=orthogonalEdgeStyle;rounded=0;orthogonalLoop=1;jettySize=auto;html=1;exitX=1;exitY=1;exitDx=0;exitDy=0;entryX=0.5;entryY=0;entryDx=0;entryDy=0;" edge="1" parent="1" source="9iKpFj8WR964mqMkV7nl-2" target="9iKpFj8WR964mqMkV7nl-3">
          <mxGeometry relative="1" as="geometry" />
        </mxCell>
        <mxCell id="9iKpFj8WR964mqMkV7nl-2" value="Python&lt;br&gt;Opencv" style="ellipse;whiteSpace=wrap;html=1;aspect=fixed;" vertex="1" parent="1">
          <mxGeometry x="143" y="432" width="80" height="80" as="geometry" />
        </mxCell>
        <mxCell id="9iKpFj8WR964mqMkV7nl-5" style="edgeStyle=orthogonalEdgeStyle;rounded=0;orthogonalLoop=1;jettySize=auto;html=1;exitX=1;exitY=0;exitDx=0;exitDy=0;entryX=0.5;entryY=1;entryDx=0;entryDy=0;" edge="1" parent="1" source="9iKpFj8WR964mqMkV7nl-3" target="9iKpFj8WR964mqMkV7nl-1">
          <mxGeometry relative="1" as="geometry" />
        </mxCell>
        <mxCell id="9iKpFj8WR964mqMkV7nl-3" value="Camera" style="ellipse;whiteSpace=wrap;html=1;aspect=fixed;" vertex="1" parent="1">
          <mxGeometry x="235" y="510" width="80" height="80" as="geometry" />
        </mxCell>
        <mxCell id="9iKpFj8WR964mqMkV7nl-6" value="Web Module&lt;br&gt;Apache2&lt;br&gt;PhP&lt;br&gt;Sqlite" style="ellipse;whiteSpace=wrap;html=1;aspect=fixed;" vertex="1" parent="1">
          <mxGeometry x="452" y="434" width="80" height="80" as="geometry" />
        </mxCell>
        <mxCell id="9iKpFj8WR964mqMkV7nl-8" value="PHP" style="ellipse;whiteSpace=wrap;html=1;aspect=fixed;" vertex="1" parent="1">
          <mxGeometry x="495" y="120" width="80" height="80" as="geometry" />
        </mxCell>
        <mxCell id="9iKpFj8WR964mqMkV7nl-11" style="edgeStyle=orthogonalEdgeStyle;rounded=0;orthogonalLoop=1;jettySize=auto;html=1;exitX=0;exitY=0.5;exitDx=0;exitDy=0;" edge="1" parent="1" source="9iKpFj8WR964mqMkV7nl-9" target="9iKpFj8WR964mqMkV7nl-10">
          <mxGeometry relative="1" as="geometry" />
        </mxCell>
        <mxCell id="9iKpFj8WR964mqMkV7nl-12" style="edgeStyle=orthogonalEdgeStyle;rounded=0;orthogonalLoop=1;jettySize=auto;html=1;exitX=1;exitY=0.5;exitDx=0;exitDy=0;" edge="1" parent="1" source="9iKpFj8WR964mqMkV7nl-9" target="9iKpFj8WR964mqMkV7nl-8">
          <mxGeometry relative="1" as="geometry" />
        </mxCell>
        <mxCell id="9iKpFj8WR964mqMkV7nl-9" value="SQLite DB" style="ellipse;whiteSpace=wrap;html=1;aspect=fixed;" vertex="1" parent="1">
          <mxGeometry x="375" y="120" width="80" height="80" as="geometry" />
        </mxCell>
        <mxCell id="9iKpFj8WR964mqMkV7nl-10" value="Python" style="ellipse;whiteSpace=wrap;html=1;aspect=fixed;" vertex="1" parent="1">
          <mxGeometry x="263" y="120" width="80" height="80" as="geometry" />
        </mxCell>
        <mxCell id="9iKpFj8WR964mqMkV7nl-13" value="Project stack" style="rounded=1;whiteSpace=wrap;html=1;" vertex="1" parent="1">
          <mxGeometry x="250" y="24" width="120" height="60" as="geometry" />
        </mxCell>
        <mxCell id="9iKpFj8WR964mqMkV7nl-14" value="FrontEnd" style="shape=hexagon;perimeter=hexagonPerimeter2;whiteSpace=wrap;html=1;fixedSize=1;" vertex="1" parent="1">
          <mxGeometry x="118" y="284" width="111" height="52" as="geometry" />
        </mxCell>
        <mxCell id="zdOZsl0POaIPZpmt0Iil-4" style="edgeStyle=orthogonalEdgeStyle;rounded=0;orthogonalLoop=1;jettySize=auto;html=1;exitX=0;exitY=0.5;exitDx=0;exitDy=0;" edge="1" parent="1" source="9iKpFj8WR964mqMkV7nl-15" target="9iKpFj8WR964mqMkV7nl-16">
          <mxGeometry relative="1" as="geometry" />
        </mxCell>
        <mxCell id="9iKpFj8WR964mqMkV7nl-15" value="Backend&lt;br&gt;PHP" style="shape=hexagon;perimeter=hexagonPerimeter2;whiteSpace=wrap;html=1;fixedSize=1;" vertex="1" parent="1">
          <mxGeometry x="410" y="281" width="111" height="52" as="geometry" />
        </mxCell>
        <mxCell id="9iKpFj8WR964mqMkV7nl-16" value="MySQL" style="shape=hexagon;perimeter=hexagonPerimeter2;whiteSpace=wrap;html=1;fixedSize=1;" vertex="1" parent="1">
          <mxGeometry x="261" y="280" width="112" height="54" as="geometry" />
        </mxCell>
        <mxCell id="zdOZsl0POaIPZpmt0Iil-3" style="edgeStyle=orthogonalEdgeStyle;rounded=0;orthogonalLoop=1;jettySize=auto;html=1;" edge="1" parent="1" source="zdOZsl0POaIPZpmt0Iil-1" target="9iKpFj8WR964mqMkV7nl-10">
          <mxGeometry relative="1" as="geometry" />
        </mxCell>
        <mxCell id="zdOZsl0POaIPZpmt0Iil-1" value="RaspberryPi" style="ellipse;whiteSpace=wrap;html=1;aspect=fixed;" vertex="1" parent="1">
          <mxGeometry x="151" y="120" width="80" height="80" as="geometry" />
        </mxCell>
        <mxCell id="zdOZsl0POaIPZpmt0Iil-2" value="" style="endArrow=classic;startArrow=classic;html=1;rounded=0;exitX=1;exitY=0.5;exitDx=0;exitDy=0;" edge="1" parent="1" source="9iKpFj8WR964mqMkV7nl-14">
          <mxGeometry width="50" height="50" relative="1" as="geometry">
            <mxPoint x="416" y="354" as="sourcePoint" />
            <mxPoint x="264" y="310" as="targetPoint" />
          </mxGeometry>
        </mxCell>
      </root>
    </mxGraphModel>
  </diagram>
  <diagram id="ABVXK7X6tl6tilfJCrGJ" name="Page-4">
    <mxGraphModel dx="1295" dy="626" grid="0" gridSize="10" guides="1" tooltips="1" connect="1" arrows="1" fold="1" page="1" pageScale="1" pageWidth="850" pageHeight="1100" math="0" shadow="0">
      <root>
        <mxCell id="0" />
        <mxCell id="1" parent="0" />
        <mxCell id="HJKDvdhxP4igu7UgxEwr-1" value="Web Server&lt;br&gt;Apache" style="ellipse;whiteSpace=wrap;html=1;" vertex="1" parent="1">
          <mxGeometry x="256" y="370" width="120" height="80" as="geometry" />
        </mxCell>
        <mxCell id="HJKDvdhxP4igu7UgxEwr-12" style="edgeStyle=orthogonalEdgeStyle;rounded=0;orthogonalLoop=1;jettySize=auto;html=1;exitX=0;exitY=0.5;exitDx=0;exitDy=0;" edge="1" parent="1" source="HJKDvdhxP4igu7UgxEwr-2">
          <mxGeometry relative="1" as="geometry">
            <mxPoint x="169" y="246" as="targetPoint" />
          </mxGeometry>
        </mxCell>
        <mxCell id="HJKDvdhxP4igu7UgxEwr-2" value="PHP" style="ellipse;whiteSpace=wrap;html=1;aspect=fixed;" vertex="1" parent="1">
          <mxGeometry x="276" y="268" width="80" height="80" as="geometry" />
        </mxCell>
        <mxCell id="HJKDvdhxP4igu7UgxEwr-3" value="Laravel" style="ellipse;whiteSpace=wrap;html=1;aspect=fixed;" vertex="1" parent="1">
          <mxGeometry x="278" y="138" width="80" height="80" as="geometry" />
        </mxCell>
        <mxCell id="HJKDvdhxP4igu7UgxEwr-4" value="Project" style="rounded=1;whiteSpace=wrap;html=1;" vertex="1" parent="1">
          <mxGeometry x="260" y="49" width="120" height="60" as="geometry" />
        </mxCell>
        <mxCell id="HJKDvdhxP4igu7UgxEwr-5" value="" style="endArrow=classic;startArrow=classic;html=1;rounded=0;entryX=0.5;entryY=1;entryDx=0;entryDy=0;" edge="1" parent="1" source="HJKDvdhxP4igu7UgxEwr-2" target="HJKDvdhxP4igu7UgxEwr-3">
          <mxGeometry width="50" height="50" relative="1" as="geometry">
            <mxPoint x="399" y="349" as="sourcePoint" />
            <mxPoint x="449" y="299" as="targetPoint" />
          </mxGeometry>
        </mxCell>
        <mxCell id="HJKDvdhxP4igu7UgxEwr-6" value="functions" style="triangle;whiteSpace=wrap;html=1;" vertex="1" parent="1">
          <mxGeometry x="434" y="127.5" width="110" height="101" as="geometry" />
        </mxCell>
        <mxCell id="HJKDvdhxP4igu7UgxEwr-7" style="edgeStyle=orthogonalEdgeStyle;rounded=0;orthogonalLoop=1;jettySize=auto;html=1;exitX=1;exitY=0;exitDx=0;exitDy=0;entryX=-0.018;entryY=1.04;entryDx=0;entryDy=0;entryPerimeter=0;" edge="1" parent="1" source="HJKDvdhxP4igu7UgxEwr-2" target="HJKDvdhxP4igu7UgxEwr-6">
          <mxGeometry relative="1" as="geometry" />
        </mxCell>
        <mxCell id="HJKDvdhxP4igu7UgxEwr-8" value="" style="endArrow=classic;startArrow=classic;html=1;rounded=0;entryX=1;entryY=0.5;entryDx=0;entryDy=0;exitX=0.036;exitY=0.05;exitDx=0;exitDy=0;exitPerimeter=0;" edge="1" parent="1" source="HJKDvdhxP4igu7UgxEwr-6" target="HJKDvdhxP4igu7UgxEwr-4">
          <mxGeometry width="50" height="50" relative="1" as="geometry">
            <mxPoint x="399" y="349" as="sourcePoint" />
            <mxPoint x="449" y="299" as="targetPoint" />
          </mxGeometry>
        </mxCell>
        <mxCell id="HJKDvdhxP4igu7UgxEwr-10" style="edgeStyle=orthogonalEdgeStyle;rounded=0;orthogonalLoop=1;jettySize=auto;html=1;exitX=1;exitY=0.3333333333333333;exitDx=0;exitDy=0;exitPerimeter=0;entryX=0;entryY=0.5;entryDx=0;entryDy=0;" edge="1" parent="1" source="HJKDvdhxP4igu7UgxEwr-9" target="HJKDvdhxP4igu7UgxEwr-3">
          <mxGeometry relative="1" as="geometry" />
        </mxCell>
        <mxCell id="HJKDvdhxP4igu7UgxEwr-11" style="edgeStyle=orthogonalEdgeStyle;rounded=0;orthogonalLoop=1;jettySize=auto;html=1;exitX=0.5;exitY=0.5;exitDx=0;exitDy=0;exitPerimeter=0;" edge="1" parent="1" source="HJKDvdhxP4igu7UgxEwr-9">
          <mxGeometry relative="1" as="geometry">
            <mxPoint x="172" y="246" as="targetPoint" />
          </mxGeometry>
        </mxCell>
        <mxCell id="HJKDvdhxP4igu7UgxEwr-9" value="Programmer" style="shape=umlActor;verticalLabelPosition=bottom;verticalAlign=top;html=1;outlineConnect=0;" vertex="1" parent="1">
          <mxGeometry x="86" y="132" width="30" height="60" as="geometry" />
        </mxCell>
        <mxCell id="-DvW36mt_XjimnCGM4im-1" value="Laraavel&lt;br&gt;Modules" style="ellipse;whiteSpace=wrap;html=1;aspect=fixed;" vertex="1" parent="1">
          <mxGeometry x="406" y="373" width="80" height="80" as="geometry" />
        </mxCell>
        <mxCell id="o5lvRi9WV6C7D8qa_eIv-1" style="edgeStyle=orthogonalEdgeStyle;rounded=0;orthogonalLoop=1;jettySize=auto;html=1;" edge="1" parent="1" source="-DvW36mt_XjimnCGM4im-3" target="HJKDvdhxP4igu7UgxEwr-9">
          <mxGeometry relative="1" as="geometry" />
        </mxCell>
        <mxCell id="-DvW36mt_XjimnCGM4im-3" value="Client" style="shape=umlActor;verticalLabelPosition=bottom;verticalAlign=top;html=1;outlineConnect=0;" vertex="1" parent="1">
          <mxGeometry x="109" y="333" width="45" height="60" as="geometry" />
        </mxCell>
      </root>
    </mxGraphModel>
  </diagram>
  <diagram id="dsdqbamV-Kdoowt52PR8" name="Page-5">
    <mxGraphModel dx="1295" dy="626" grid="0" gridSize="10" guides="1" tooltips="1" connect="1" arrows="1" fold="1" page="1" pageScale="1" pageWidth="850" pageHeight="1100" math="0" shadow="0">
      <root>
        <mxCell id="0" />
        <mxCell id="1" parent="0" />
        <mxCell id="enrWA3t_Bs0z8nUpgpTv-1" value="Devops" style="ellipse;whiteSpace=wrap;html=1;aspect=fixed;" vertex="1" parent="1">
          <mxGeometry x="651" y="184" width="77" height="77" as="geometry" />
        </mxCell>
        <mxCell id="enrWA3t_Bs0z8nUpgpTv-13" style="edgeStyle=orthogonalEdgeStyle;rounded=0;orthogonalLoop=1;jettySize=auto;html=1;entryX=1;entryY=0.5;entryDx=0;entryDy=0;" edge="1" parent="1" source="enrWA3t_Bs0z8nUpgpTv-2" target="enrWA3t_Bs0z8nUpgpTv-3">
          <mxGeometry relative="1" as="geometry" />
        </mxCell>
        <mxCell id="enrWA3t_Bs0z8nUpgpTv-17" style="edgeStyle=orthogonalEdgeStyle;rounded=0;orthogonalLoop=1;jettySize=auto;html=1;exitX=0.625;exitY=1;exitDx=0;exitDy=0;entryX=1;entryY=0.5;entryDx=0;entryDy=0;" edge="1" parent="1" source="enrWA3t_Bs0z8nUpgpTv-2" target="enrWA3t_Bs0z8nUpgpTv-4">
          <mxGeometry relative="1" as="geometry" />
        </mxCell>
        <mxCell id="enrWA3t_Bs0z8nUpgpTv-2" value="BASH" style="shape=hexagon;perimeter=hexagonPerimeter2;whiteSpace=wrap;html=1;fixedSize=1;" vertex="1" parent="1">
          <mxGeometry x="457" y="204" width="71" height="63" as="geometry" />
        </mxCell>
        <mxCell id="enrWA3t_Bs0z8nUpgpTv-16" style="edgeStyle=orthogonalEdgeStyle;rounded=0;orthogonalLoop=1;jettySize=auto;html=1;exitX=0.375;exitY=1;exitDx=0;exitDy=0;entryX=0;entryY=0.5;entryDx=0;entryDy=0;" edge="1" parent="1" source="enrWA3t_Bs0z8nUpgpTv-3" target="enrWA3t_Bs0z8nUpgpTv-4">
          <mxGeometry relative="1" as="geometry" />
        </mxCell>
        <mxCell id="enrWA3t_Bs0z8nUpgpTv-3" value="PYTHON basics&lt;br&gt;Python OOP" style="shape=hexagon;perimeter=hexagonPerimeter2;whiteSpace=wrap;html=1;fixedSize=1;" vertex="1" parent="1">
          <mxGeometry x="208" y="158" width="170" height="94" as="geometry" />
        </mxCell>
        <mxCell id="enrWA3t_Bs0z8nUpgpTv-20" style="edgeStyle=orthogonalEdgeStyle;rounded=0;orthogonalLoop=1;jettySize=auto;html=1;exitX=0.5;exitY=1;exitDx=0;exitDy=0;" edge="1" parent="1" source="enrWA3t_Bs0z8nUpgpTv-4" target="enrWA3t_Bs0z8nUpgpTv-19">
          <mxGeometry relative="1" as="geometry" />
        </mxCell>
        <mxCell id="enrWA3t_Bs0z8nUpgpTv-4" value="aNSIBLE&amp;nbsp;" style="rhombus;whiteSpace=wrap;html=1;" vertex="1" parent="1">
          <mxGeometry x="333" y="300" width="80" height="80" as="geometry" />
        </mxCell>
        <mxCell id="enrWA3t_Bs0z8nUpgpTv-5" value="TERAFORM" style="rhombus;whiteSpace=wrap;html=1;" vertex="1" parent="1">
          <mxGeometry x="397" y="495" width="80" height="80" as="geometry" />
        </mxCell>
        <mxCell id="enrWA3t_Bs0z8nUpgpTv-18" style="edgeStyle=orthogonalEdgeStyle;rounded=0;orthogonalLoop=1;jettySize=auto;html=1;exitX=0.5;exitY=1;exitDx=0;exitDy=0;entryX=0.5;entryY=0;entryDx=0;entryDy=0;" edge="1" parent="1" source="enrWA3t_Bs0z8nUpgpTv-6" target="enrWA3t_Bs0z8nUpgpTv-1">
          <mxGeometry relative="1" as="geometry" />
        </mxCell>
        <mxCell id="enrWA3t_Bs0z8nUpgpTv-6" value="SYS ADMIN" style="triangle;whiteSpace=wrap;html=1;" vertex="1" parent="1">
          <mxGeometry x="595" y="38.5" width="133" height="94" as="geometry" />
        </mxCell>
        <mxCell id="enrWA3t_Bs0z8nUpgpTv-12" style="edgeStyle=orthogonalEdgeStyle;rounded=0;orthogonalLoop=1;jettySize=auto;html=1;exitX=1;exitY=0.5;exitDx=0;exitDy=0;entryX=0;entryY=0.5;entryDx=0;entryDy=0;" edge="1" parent="1" source="enrWA3t_Bs0z8nUpgpTv-9" target="enrWA3t_Bs0z8nUpgpTv-3">
          <mxGeometry relative="1" as="geometry" />
        </mxCell>
        <mxCell id="enrWA3t_Bs0z8nUpgpTv-9" value="C" style="ellipse;whiteSpace=wrap;html=1;" vertex="1" parent="1">
          <mxGeometry x="37" y="145" width="120" height="80" as="geometry" />
        </mxCell>
        <mxCell id="enrWA3t_Bs0z8nUpgpTv-14" style="edgeStyle=orthogonalEdgeStyle;rounded=0;orthogonalLoop=1;jettySize=auto;html=1;exitX=1;exitY=0.75;exitDx=0;exitDy=0;entryX=0.141;entryY=0.857;entryDx=0;entryDy=0;entryPerimeter=0;" edge="1" parent="1" source="enrWA3t_Bs0z8nUpgpTv-3" target="enrWA3t_Bs0z8nUpgpTv-2">
          <mxGeometry relative="1" as="geometry">
            <Array as="points">
              <mxPoint x="369" y="243" />
              <mxPoint x="418" y="243" />
              <mxPoint x="418" y="258" />
            </Array>
          </mxGeometry>
        </mxCell>
        <mxCell id="enrWA3t_Bs0z8nUpgpTv-21" style="edgeStyle=orthogonalEdgeStyle;rounded=0;orthogonalLoop=1;jettySize=auto;html=1;exitX=0.5;exitY=1;exitDx=0;exitDy=0;entryX=0;entryY=0.5;entryDx=0;entryDy=0;" edge="1" parent="1" source="enrWA3t_Bs0z8nUpgpTv-19" target="enrWA3t_Bs0z8nUpgpTv-5">
          <mxGeometry relative="1" as="geometry" />
        </mxCell>
        <mxCell id="enrWA3t_Bs0z8nUpgpTv-19" value="GitLab" style="rhombus;whiteSpace=wrap;html=1;" vertex="1" parent="1">
          <mxGeometry x="333" y="409" width="80" height="80" as="geometry" />
        </mxCell>
      </root>
    </mxGraphModel>
  </diagram>
  <diagram id="ka-LBy1wILGHuFmPORt0" name="Page-8">
    <mxGraphModel dx="1295" dy="626" grid="0" gridSize="10" guides="1" tooltips="1" connect="1" arrows="1" fold="1" page="1" pageScale="1" pageWidth="850" pageHeight="1100" math="0" shadow="0">
      <root>
        <mxCell id="0" />
        <mxCell id="1" parent="0" />
        <mxCell id="HrFSmmn7MwXaSNKuHtHm-1" value="Github" style="rounded=1;whiteSpace=wrap;html=1;" vertex="1" parent="1">
          <mxGeometry x="172" y="172" width="120" height="60" as="geometry" />
        </mxCell>
        <mxCell id="HrFSmmn7MwXaSNKuHtHm-5" style="edgeStyle=orthogonalEdgeStyle;rounded=0;orthogonalLoop=1;jettySize=auto;html=1;exitX=0.5;exitY=0;exitDx=0;exitDy=0;entryX=0.5;entryY=1;entryDx=0;entryDy=0;" edge="1" parent="1" source="HrFSmmn7MwXaSNKuHtHm-2" target="HrFSmmn7MwXaSNKuHtHm-1">
          <mxGeometry relative="1" as="geometry" />
        </mxCell>
        <mxCell id="HrFSmmn7MwXaSNKuHtHm-2" value="GitHub Actions" style="rhombus;whiteSpace=wrap;html=1;" vertex="1" parent="1">
          <mxGeometry x="179.5" y="253" width="105" height="101" as="geometry" />
        </mxCell>
        <mxCell id="HrFSmmn7MwXaSNKuHtHm-4" style="edgeStyle=orthogonalEdgeStyle;rounded=0;orthogonalLoop=1;jettySize=auto;html=1;entryX=0.5;entryY=1;entryDx=0;entryDy=0;" edge="1" parent="1" source="HrFSmmn7MwXaSNKuHtHm-3" target="HrFSmmn7MwXaSNKuHtHm-2">
          <mxGeometry relative="1" as="geometry" />
        </mxCell>
        <mxCell id="HrFSmmn7MwXaSNKuHtHm-3" value="ansible .yml files" style="rhombus;whiteSpace=wrap;html=1;" vertex="1" parent="1">
          <mxGeometry x="179.5" y="388" width="105" height="101" as="geometry" />
        </mxCell>
        <mxCell id="HrFSmmn7MwXaSNKuHtHm-6" value="pipelines" style="shape=dataStorage;whiteSpace=wrap;html=1;fixedSize=1;" vertex="1" parent="1">
          <mxGeometry x="384" y="291" width="100" height="80" as="geometry" />
        </mxCell>
        <mxCell id="HrFSmmn7MwXaSNKuHtHm-7" value="GitLab" style="rounded=1;whiteSpace=wrap;html=1;" vertex="1" parent="1">
          <mxGeometry x="482" y="150" width="120" height="60" as="geometry" />
        </mxCell>
        <mxCell id="HrFSmmn7MwXaSNKuHtHm-8" value="" style="endArrow=classic;startArrow=classic;html=1;rounded=0;entryX=0;entryY=1;entryDx=0;entryDy=0;" edge="1" parent="1" target="HrFSmmn7MwXaSNKuHtHm-7">
          <mxGeometry width="50" height="50" relative="1" as="geometry">
            <mxPoint x="455" y="281" as="sourcePoint" />
            <mxPoint x="449" y="299" as="targetPoint" />
          </mxGeometry>
        </mxCell>
      </root>
    </mxGraphModel>
  </diagram>
  <diagram id="tHvWBZwI4rYZZDvoJ8hg" name="Page-6">
    <mxGraphModel dx="1295" dy="626" grid="0" gridSize="10" guides="1" tooltips="1" connect="1" arrows="1" fold="1" page="1" pageScale="1" pageWidth="850" pageHeight="1100" math="0" shadow="0">
      <root>
        <mxCell id="0" />
        <mxCell id="1" parent="0" />
        <mxCell id="TgjzsXhBG9Q8v4ZTXo8k-1" value="C, Python" style="ellipse;whiteSpace=wrap;html=1;aspect=fixed;" vertex="1" parent="1">
          <mxGeometry x="315" y="214" width="80" height="80" as="geometry" />
        </mxCell>
        <mxCell id="TgjzsXhBG9Q8v4ZTXo8k-2" value="&amp;nbsp;strlen" style="ellipse;whiteSpace=wrap;html=1;aspect=fixed;" vertex="1" parent="1">
          <mxGeometry x="315" y="335" width="80" height="80" as="geometry" />
        </mxCell>
      </root>
    </mxGraphModel>
  </diagram>
  <diagram id="kjZooLyR1muipwx-yvBX" name="Page-9">
    <mxGraphModel dx="1295" dy="626" grid="0" gridSize="10" guides="1" tooltips="1" connect="1" arrows="1" fold="1" page="1" pageScale="1" pageWidth="850" pageHeight="1100" math="0" shadow="0">
      <root>
        <mxCell id="0" />
        <mxCell id="1" parent="0" />
        <mxCell id="SP0UUMWHPho6ahc3MlNx-3" style="edgeStyle=orthogonalEdgeStyle;rounded=0;orthogonalLoop=1;jettySize=auto;html=1;exitX=0.5;exitY=1;exitDx=0;exitDy=0;" edge="1" parent="1" source="SP0UUMWHPho6ahc3MlNx-1" target="SP0UUMWHPho6ahc3MlNx-2">
          <mxGeometry relative="1" as="geometry" />
        </mxCell>
        <mxCell id="SP0UUMWHPho6ahc3MlNx-1" value="Project" style="rounded=0;whiteSpace=wrap;html=1;" vertex="1" parent="1">
          <mxGeometry x="249" y="67" width="120" height="60" as="geometry" />
        </mxCell>
        <mxCell id="SP0UUMWHPho6ahc3MlNx-5" value="" style="edgeStyle=orthogonalEdgeStyle;rounded=0;orthogonalLoop=1;jettySize=auto;html=1;" edge="1" parent="1" source="SP0UUMWHPho6ahc3MlNx-2" target="SP0UUMWHPho6ahc3MlNx-4">
          <mxGeometry relative="1" as="geometry" />
        </mxCell>
        <mxCell id="SP0UUMWHPho6ahc3MlNx-2" value="Conf files&lt;br&gt;ansible-based" style="rhombus;whiteSpace=wrap;html=1;" vertex="1" parent="1">
          <mxGeometry x="254" y="151" width="110" height="114" as="geometry" />
        </mxCell>
        <mxCell id="SP0UUMWHPho6ahc3MlNx-7" value="" style="edgeStyle=orthogonalEdgeStyle;rounded=0;orthogonalLoop=1;jettySize=auto;html=1;" edge="1" parent="1" source="SP0UUMWHPho6ahc3MlNx-4" target="SP0UUMWHPho6ahc3MlNx-6">
          <mxGeometry relative="1" as="geometry" />
        </mxCell>
        <mxCell id="SP0UUMWHPho6ahc3MlNx-4" value="PHP,Python&lt;br&gt;pipelines" style="rhombus;whiteSpace=wrap;html=1;" vertex="1" parent="1">
          <mxGeometry x="254" y="307" width="110" height="114" as="geometry" />
        </mxCell>
        <mxCell id="SP0UUMWHPho6ahc3MlNx-6" value="GitLab" style="rhombus;whiteSpace=wrap;html=1;" vertex="1" parent="1">
          <mxGeometry x="254" y="463" width="110" height="114" as="geometry" />
        </mxCell>
      </root>
    </mxGraphModel>
  </diagram>
  <diagram id="gTjteeHHEEHoKbMDsPzs" name="Page-7">
    <mxGraphModel dx="1295" dy="626" grid="0" gridSize="10" guides="1" tooltips="1" connect="1" arrows="1" fold="1" page="1" pageScale="1" pageWidth="850" pageHeight="1100" math="0" shadow="0">
      <root>
        <mxCell id="0" />
        <mxCell id="1" parent="0" />
        <mxCell id="TRQN5ICwVQU0bTEVu0Wn-1" value="AVR ASM" style="shape=or;whiteSpace=wrap;html=1;rotation=0;" vertex="1" parent="1">
          <mxGeometry x="245" y="165" width="76" height="94" as="geometry" />
        </mxCell>
        <mxCell id="TRQN5ICwVQU0bTEVu0Wn-2" value="PIC ASM" style="shape=or;whiteSpace=wrap;html=1;" vertex="1" parent="1">
          <mxGeometry x="355" y="163" width="77" height="88" as="geometry" />
        </mxCell>
        <mxCell id="TRQN5ICwVQU0bTEVu0Wn-3" value="RISC-V&lt;br&gt;ASM" style="shape=or;whiteSpace=wrap;html=1;" vertex="1" parent="1">
          <mxGeometry x="466" y="163" width="86" height="95" as="geometry" />
        </mxCell>
        <mxCell id="TRQN5ICwVQU0bTEVu0Wn-4" value="RISC-V&lt;br&gt;ARCHITECTURE" style="shape=or;whiteSpace=wrap;html=1;" vertex="1" parent="1">
          <mxGeometry x="302" y="510" width="107" height="97" as="geometry" />
        </mxCell>
        <mxCell id="EFOFwUisdPlGf3iLlRfw-1" value="Open-source &lt;br&gt;CPU" style="shape=trapezoid;perimeter=trapezoidPerimeter;whiteSpace=wrap;html=1;fixedSize=1;" vertex="1" parent="1">
          <mxGeometry x="40" y="355" width="120" height="60" as="geometry" />
        </mxCell>
        <mxCell id="EFOFwUisdPlGf3iLlRfw-2" value="RISC-V&lt;br&gt;asm" style="shape=or;whiteSpace=wrap;html=1;" vertex="1" parent="1">
          <mxGeometry x="447" y="506" width="107" height="97" as="geometry" />
        </mxCell>
        <mxCell id="EFOFwUisdPlGf3iLlRfw-3" value="PC x86&lt;br&gt;ARCHITECTURE" style="shape=or;whiteSpace=wrap;html=1;" vertex="1" parent="1">
          <mxGeometry x="25" y="494" width="107" height="97" as="geometry" />
        </mxCell>
        <mxCell id="EFOFwUisdPlGf3iLlRfw-4" value="Mobile ARM&lt;br&gt;ARCHITECTURE" style="shape=or;whiteSpace=wrap;html=1;" vertex="1" parent="1">
          <mxGeometry x="156" y="502" width="107" height="97" as="geometry" />
        </mxCell>
      </root>
    </mxGraphModel>
  </diagram>
</mxfile>
